<svg width="161" height="161" viewBox="0 0 161 161" fill="none" xmlns="http://www.w3.org/2000/svg">
<g clip-path="url(#clip0)">
<path d="M144.275 0.314453H96.2929C94.9908 0.314453 93.9357 1.36959 93.9357 2.67163C93.9357 3.97366 94.9908 5.0288 96.2929 5.0288H144.275C150.724 5.0288 155.972 10.2762 155.972 16.7262V104.738H151.844C151.844 104.712 151.847 104.687 151.847 104.662V86.4637C151.847 81.828 148.825 77.8875 144.649 76.5007V67.9564C144.649 63.7923 142.866 60.0373 140.027 57.4099V37.8843C140.027 37.8794 140.027 37.8757 140.027 37.872V26.3527C140.027 24.5753 139.529 22.9109 138.667 21.4922C137.02 18.7849 134.041 16.9719 130.646 16.9719H29.3425C24.17 16.9719 19.9629 21.179 19.9629 26.3515V104.738H4.3999V16.7262C4.3999 10.2762 9.64734 5.0288 16.0961 5.0288H85.2145C86.5166 5.0288 87.5717 3.97366 87.5717 2.67163C87.5717 1.36959 86.5166 0.314453 85.2145 0.314453H16.0961C7.04696 0.314453 -0.314453 7.67709 -0.314453 16.7262V111.681C-0.314453 114.17 0.224786 116.548 1.30572 118.79C2.92098 122.137 5.64052 124.855 8.98773 126.472C11.2233 127.55 13.6161 128.092 16.0961 128.092H57.6003V138.553H40.3815C35.9693 138.553 32.3801 142.142 32.3801 146.553V156.256C32.3801 158.779 34.4327 160.832 36.9557 160.832H122.405C124.928 160.832 126.98 158.778 126.98 156.256V146.553C126.98 142.142 123.391 138.553 118.979 138.553H101.76V128.092H144.275C147.781 128.092 149.697 127.585 152.778 125.713C155.483 124.069 157.689 121.641 159.064 118.79C159.642 117.595 160.078 116.318 160.352 114.984C160.57 113.917 160.686 112.813 160.686 111.681V16.7262C160.686 7.67709 153.324 0.314453 144.275 0.314453ZM139.934 67.9564V75.9651H135.961V68.3139C135.961 64.9826 133.251 62.2729 129.92 62.2729C126.589 62.2729 123.879 64.9826 123.879 68.3139V75.9651H119.905V67.9564C119.905 62.6316 124.237 58.2992 129.562 58.2992H130.277C135.602 58.2992 139.934 62.6316 139.934 67.9564ZM131.246 68.3139V75.9651H128.593V68.3139C128.593 67.5818 129.189 66.9872 129.92 66.9872C130.652 66.9872 131.246 67.5818 131.246 68.3139ZM117.01 60.9709H36.4914C36.2862 60.9709 36.1192 60.8038 36.1192 60.5987V51.2854C36.1192 51.0803 36.2862 50.9133 36.4914 50.9133H123.498C123.703 50.9133 123.87 51.0803 123.87 51.2854V54.7629C120.959 56.0244 118.547 58.2206 117.01 60.9709ZM24.6773 26.3527C24.6773 23.7793 26.7703 21.6863 29.3437 21.6863H130.646C132.093 21.6863 133.389 22.3483 134.245 23.3863C134.912 24.1933 135.312 25.2263 135.312 26.3515V35.5148H24.6773V26.3527ZM24.6773 40.228H135.312V54.4963C133.744 53.9079 132.048 53.5849 130.277 53.5849H129.562C129.233 53.5849 128.908 53.5996 128.583 53.6217V51.2842C128.583 48.4799 126.302 46.1989 123.498 46.1989H36.4914C33.6871 46.1989 31.4061 48.4812 31.4061 51.2842V60.5987C31.4061 63.403 33.6871 65.684 36.4914 65.684H115.373C115.255 66.4247 115.191 67.1825 115.191 67.9564V76.4921C111.358 77.7511 108.487 81.1524 108.049 85.3705C107.915 86.6652 108.856 87.8235 110.151 87.9574C111.446 88.095 112.604 87.1516 112.739 85.8557C113.045 82.9052 115.518 80.6795 118.49 80.6795H141.349C144.538 80.6795 147.132 83.2737 147.132 86.4625V104.662C147.132 107.85 144.538 110.445 141.349 110.445H118.49C115.301 110.445 112.707 107.85 112.707 104.662V96.4439C112.707 95.1419 111.652 94.0868 110.35 94.0868C109.048 94.0868 107.993 95.1419 107.993 96.4439V104.662C107.993 104.686 107.995 104.712 107.995 104.738H24.6773V40.228ZM118.98 143.266C120.792 143.266 122.267 144.741 122.267 146.553V156.118H37.0945V146.553C37.0945 144.741 38.5685 143.266 40.3815 143.266H118.98ZM62.3134 138.553V128.092H97.0471V138.553H62.3134ZM155.972 111.681C155.972 118.131 150.724 123.379 144.275 123.379H16.0961C9.64734 123.379 4.3999 118.131 4.3999 111.681V109.452H109.155C110.899 112.836 114.428 115.159 118.49 115.159H141.349C145.412 115.159 148.941 112.836 150.685 109.452H155.972V111.681Z" fill="#F86262"/>
<path d="M124.091 99.6425V102.513C124.091 105.588 126.349 108.128 129.344 108.421C129.533 108.441 129.722 108.45 129.91 108.45C131.351 108.45 132.755 107.914 133.83 106.938C135.049 105.832 135.748 104.26 135.748 102.621V99.645C135.748 99.0246 136.008 98.3933 136.478 97.8639C137.91 96.2572 138.699 94.1862 138.699 92.0342C138.699 89.5407 137.631 87.1553 135.772 85.4921C133.914 83.8289 131.418 83.0354 128.922 83.3118C124.825 83.7675 121.568 87.0816 121.18 91.1903C120.948 93.6593 121.769 96.1209 123.434 97.9449C123.858 98.4092 124.091 99.0124 124.091 99.6425ZM125.875 91.6338C126.051 89.7667 127.585 88.2043 129.445 87.9967C129.604 87.9795 129.763 87.9696 129.921 87.9696C130.927 87.9696 131.874 88.3295 132.63 89.0039C133.491 89.7753 133.984 90.8796 133.984 92.0342C133.984 93.0291 133.621 93.9848 132.959 94.7279C131.718 96.1209 131.034 97.8676 131.034 99.645V102.621C131.034 103.046 130.802 103.32 130.663 103.445C130.527 103.571 130.234 103.772 129.804 103.73C129.254 103.676 128.806 103.131 128.806 102.513V99.6425C128.806 97.8332 128.134 96.1024 126.915 94.766C126.134 93.9111 125.764 92.7982 125.875 91.6338Z" fill="#F86262"/>
<path d="M35.6106 82.2075H40.0105C41.3125 82.2075 42.3677 81.1524 42.3677 79.8503C42.3677 78.5483 41.3125 77.4932 40.0105 77.4932H35.6106C34.3086 77.4932 33.2534 78.5483 33.2534 79.8503C33.2534 81.1524 34.3086 82.2075 35.6106 82.2075Z" fill="#F86262"/>
<path d="M99.4042 77.4932H50.853C49.551 77.4932 48.4958 78.5483 48.4958 79.8503C48.4958 81.1524 49.551 82.2075 50.853 82.2075H99.4042C100.706 82.2075 101.761 81.1524 101.761 79.8503C101.761 78.5483 100.706 77.4932 99.4042 77.4932Z" fill="#F86262"/>
<path d="M99.4042 87.1074H35.6106C34.3086 87.1074 33.2534 88.1626 33.2534 89.4646C33.2534 90.7666 34.3086 91.8218 35.6106 91.8218H99.4042C100.706 91.8218 101.761 90.7666 101.761 89.4646C101.761 88.1626 100.706 87.1074 99.4042 87.1074Z" fill="#F86262"/>
</g>
<defs>
<clipPath id="clip0">
<rect width="161" height="161" fill="white"/>
</clipPath>
</defs>
</svg>
