<svg width="48" height="48" viewBox="0 0 48 48" fill="none" xmlns="http://www.w3.org/2000/svg">
<g clip-path="url(#clip0)">
<path d="M47.527 0.123216C47.2346 -0.0436591 46.875 -0.0408466 46.5853 0.130528L29.4052 10.2897C28.9596 10.5532 28.8119 11.1281 29.0754 11.5737C29.3389 12.0193 29.9137 12.167 30.3595 11.9036L42.686 4.61459L19.726 28.4377L8.30652 24.944L23.2095 16.1315C23.6552 15.8679 23.8028 15.293 23.5393 14.8473C23.2759 14.4017 22.7009 14.2539 22.2552 14.5175L5.5228 24.4118C5.20311 24.6009 5.02508 24.9608 5.06905 25.3297C5.11302 25.6986 5.37055 26.0067 5.72568 26.1153L19.3634 30.2876L25.38 41.2388C25.3863 41.2501 25.3927 41.2597 25.3994 41.2682C25.4998 41.4357 25.6503 41.5724 25.838 41.6514C25.9554 41.7008 26.0789 41.7249 26.2015 41.7249C26.4418 41.7249 26.6783 41.6324 26.8569 41.4578L33.7751 34.6965L46.7882 38.6777C46.8782 38.7052 46.9705 38.7188 47.0624 38.7188C47.2608 38.7188 47.4567 38.6558 47.62 38.5349C47.859 38.3581 48 38.0785 48 37.7813V0.937528C48 0.600872 47.8194 0.289997 47.527 0.123216ZM25.4311 30.8653C25.3225 31.0222 25.2643 31.2084 25.2643 31.3992V37.1339L21.1559 29.656L39.336 10.7925L25.4311 30.8653ZM27.1393 38.5602V32.6665L31.7321 34.0716L27.1393 38.5602ZM46.125 36.5141L27.7032 30.8782L46.125 4.28478V36.5141Z" fill="#F86262"/>
<path d="M15.4147 32.5854C15.0485 32.2193 14.455 32.2193 14.0888 32.5854L5.33701 41.3371C4.97092 41.7032 4.97092 42.2968 5.33701 42.663C5.5202 42.846 5.7601 42.9375 6.00001 42.9375C6.23992 42.9375 6.47982 42.846 6.66292 42.6629L15.4147 33.9112C15.7808 33.5452 15.7808 32.9515 15.4147 32.5854Z" fill="#F86262"/>
<path d="M3.75666 44.2432C3.39048 43.8773 2.79704 43.8773 2.43085 44.2433L0.274601 46.3995C-0.0914929 46.7656 -0.0914929 47.3592 0.274601 47.7254C0.457695 47.9084 0.697601 47.9999 0.937507 47.9999C1.17741 47.9999 1.41732 47.9083 1.60041 47.7253L3.75666 45.5691C4.12276 45.203 4.12276 44.6094 3.75666 44.2432Z" fill="#F86262"/>
<path d="M13.3734 46.3445C13.1991 46.1701 12.9572 46.0698 12.7106 46.0698C12.463 46.0698 12.2222 46.1701 12.0478 46.3445C11.8734 46.5189 11.7731 46.7598 11.7731 47.0073C11.7731 47.2539 11.8734 47.4958 12.0478 47.6701C12.2222 47.8445 12.4641 47.9448 12.7106 47.9448C12.9572 47.9448 13.1991 47.8445 13.3734 47.6701C13.5477 47.4958 13.6481 47.2539 13.6481 47.0073C13.6481 46.7598 13.5478 46.5189 13.3734 46.3445Z" fill="#F86262"/>
<path d="M20.3485 39.3688C19.9826 39.0027 19.3892 39.0027 19.0227 39.3688L14.3871 44.0043C14.0211 44.3704 14.0211 44.964 14.3871 45.3301C14.5702 45.5132 14.8101 45.6047 15.0501 45.6047C15.29 45.6047 15.5299 45.5131 15.713 45.3301L20.3485 40.6946C20.7146 40.3285 20.7146 39.7349 20.3485 39.3688Z" fill="#F86262"/>
<path d="M36.3473 39.013C35.9811 38.647 35.3876 38.647 35.0215 39.013L30.3733 43.6611C30.0072 44.0272 30.0072 44.6209 30.3733 44.9871C30.5564 45.1701 30.7963 45.2616 31.0362 45.2616C31.2761 45.2616 31.516 45.1701 31.6991 44.9871L36.3473 40.3389C36.7134 39.9728 36.7134 39.3792 36.3473 39.013Z" fill="#F86262"/>
<path d="M26.5781 12.7791C26.4038 12.6047 26.1619 12.5044 25.9153 12.5044C25.6688 12.5044 25.4269 12.6047 25.2525 12.7791C25.0782 12.9535 24.9778 13.1953 24.9778 13.4428C24.9778 13.6894 25.0781 13.9303 25.2525 14.1047C25.4269 14.28 25.6688 14.3794 25.9153 14.3794C26.1619 14.3794 26.4038 14.28 26.5781 14.1047C26.7524 13.9303 26.8528 13.6894 26.8528 13.4428C26.8528 13.1953 26.7525 12.9535 26.5781 12.7791Z" fill="#F86262"/>
</g>
<defs>
<clipPath id="clip0">
<rect width="48" height="48" fill="white"/>
</clipPath>
</defs>
</svg>
