<svg width="160" height="160" viewBox="0 0 160 160" fill="none" xmlns="http://www.w3.org/2000/svg">
<g clip-path="url(#clip0)">
<path d="M158.424 0.41072C157.449 -0.14553 156.25 -0.136155 155.285 0.435095L98.0177 34.2988C96.5321 35.1773 96.0399 37.0935 96.9183 38.5792C97.7964 40.0645 99.7127 40.5567 101.199 39.6785L142.287 15.382L65.7536 94.7923L27.6886 83.1467L77.3652 53.7717C78.8508 52.8929 79.343 50.9767 78.4646 49.491C77.5864 48.0057 75.6699 47.5129 74.1842 48.3917L18.4095 81.3726C17.3439 82.0029 16.7505 83.2026 16.897 84.4323C17.0436 85.662 17.902 86.6888 19.0858 87.051L64.5449 100.959L84.6002 137.463C84.6211 137.5 84.6427 137.532 84.6649 137.561C84.9996 138.119 85.5011 138.575 86.1268 138.838C86.5183 139.003 86.9299 139.083 87.3386 139.083C88.1396 139.083 88.928 138.775 89.5233 138.193L112.584 115.655L155.961 128.926C156.261 129.017 156.569 129.063 156.875 129.063C157.536 129.063 158.189 128.853 158.734 128.45C159.53 127.86 160 126.928 160 125.938V3.1251C160 2.00291 159.398 0.966657 158.424 0.41072ZM84.7705 102.884C84.4086 103.407 84.2146 104.028 84.2146 104.664V123.78L70.5199 98.8532L131.12 35.9751L84.7705 102.884ZM90.4646 128.534V108.888L105.774 113.572L90.4646 128.534ZM153.75 121.714L92.3443 102.927L153.75 14.2826V121.714Z" fill="#F86262"/>
<path d="M51.3821 108.618C50.1615 107.398 48.1833 107.398 46.9624 108.618L17.7899 137.791C16.5696 139.011 16.5696 140.99 17.7899 142.211C18.4005 142.821 19.2002 143.126 19.9999 143.126C20.7996 143.126 21.5992 142.821 22.2096 142.21L51.3821 113.038C52.6024 111.818 52.6024 109.839 51.3821 108.618Z" fill="#F86262"/>
<path d="M12.5221 147.477C11.3015 146.258 9.32336 146.258 8.10273 147.478L0.915234 154.665C-0.305078 155.885 -0.305078 157.864 0.915234 159.085C1.52555 159.695 2.32523 160 3.12492 160C3.92461 160 4.7243 159.694 5.33461 159.084L12.5221 151.897C13.7424 150.677 13.7424 148.698 12.5221 147.477Z" fill="#F86262"/>
<path d="M44.5777 154.482C43.9968 153.9 43.1905 153.566 42.3686 153.566C41.5433 153.566 40.7405 153.9 40.1593 154.482C39.578 155.063 39.2437 155.866 39.2437 156.691C39.2437 157.513 39.5777 158.319 40.1593 158.9C40.7405 159.482 41.5468 159.816 42.3686 159.816C43.1905 159.816 43.9968 159.482 44.5777 158.9C45.159 158.319 45.4936 157.513 45.4936 156.691C45.4936 155.866 45.1593 155.063 44.5777 154.482Z" fill="#F86262"/>
<path d="M67.8283 131.229C66.6087 130.009 64.6305 130.009 63.409 131.229L47.9571 146.681C46.7368 147.901 46.7368 149.88 47.9571 151.1C48.5674 151.71 49.3671 152.015 50.1668 152.015C50.9665 152.015 51.7662 151.71 52.3765 151.1L67.8283 135.649C69.0487 134.428 69.0487 132.45 67.8283 131.229Z" fill="#F86262"/>
<path d="M121.158 130.044C119.937 128.824 117.959 128.824 116.738 130.044L101.244 145.538C100.024 146.758 100.024 148.737 101.244 149.958C101.855 150.568 102.654 150.873 103.454 150.873C104.254 150.873 105.053 150.568 105.664 149.958L121.158 134.464C122.378 133.244 122.378 131.265 121.158 130.044Z" fill="#F86262"/>
<path d="M88.5937 42.5968C88.0124 42.0155 87.2062 41.6812 86.3843 41.6812C85.5624 41.6812 84.7562 42.0155 84.1749 42.5968C83.594 43.178 83.2593 43.9843 83.2593 44.8093C83.2593 45.6312 83.5937 46.4343 84.1749 47.0155C84.7562 47.5999 85.5624 47.9312 86.3843 47.9312C87.2062 47.9312 88.0124 47.5999 88.5937 47.0155C89.1746 46.4343 89.5093 45.6312 89.5093 44.8093C89.5093 43.9843 89.1749 43.178 88.5937 42.5968Z" fill="#F86262"/>
</g>
<defs>
<clipPath id="clip0">
<rect width="160" height="160" fill="white"/>
</clipPath>
</defs>
</svg>
