<svg width="161" height="161" viewBox="0 0 161 161" fill="none" xmlns="http://www.w3.org/2000/svg">
<g clip-path="url(#clip0)">
<path d="M73.7167 35.2393H41.1316C39.8291 35.2393 38.7732 36.2952 38.7732 37.5976C38.7732 38.9001 39.8291 39.956 41.1316 39.956H73.7163C75.0188 39.956 76.0747 38.9001 76.0747 37.5976C76.075 36.2952 75.0191 35.2393 73.7167 35.2393Z" fill="#F86262"/>
<path d="M118.008 114.575H100.563C99.2608 114.575 98.2048 115.631 98.2048 116.933C98.2048 118.236 99.2608 119.291 100.563 119.291H118.008C119.31 119.291 120.366 118.236 120.366 116.933C120.366 115.631 119.31 114.575 118.008 114.575Z" fill="#F86262"/>
<path d="M149.756 42.8678C150.896 43.498 152.331 43.0851 152.961 41.9456C157.584 33.5871 160.362 25.0919 160.992 17.3781C161.109 15.9492 159.877 14.7187 158.449 14.8354C149.451 15.5712 139.597 19.2104 130.16 25.0765C129.14 20.9333 127.85 17.6963 126.246 15.2489C123.782 11.4887 120.567 9.58154 116.691 9.58154H13.7693C8.89525 9.58154 5.21522 11.1478 2.83262 14.2376C-1.79234 20.2333 0.613214 29.6646 0.717927 30.0634C0.990242 31.0998 1.92731 31.8227 2.99896 31.8227H23.7591C25.8678 45.2429 25.7602 64.3267 25.6606 81.892C25.6099 90.8104 25.5574 100.032 25.7716 108.437C25.8046 109.739 26.8847 110.765 28.1891 110.735C29.4912 110.702 30.5198 109.619 30.4868 108.317C30.2748 99.9861 30.327 90.8016 30.3773 81.9193C30.4968 60.8702 30.6119 40.6223 27.6661 26.9453C27.3856 25.6437 27.0665 24.3476 26.6932 23.0693C25.654 19.499 24.3326 16.5272 22.6531 14.2989H116.691C120.965 14.2989 124.003 18.7299 125.958 27.8339C123.413 29.6241 120.93 31.5705 118.523 33.6484C113.14 38.2951 108.17 43.5936 103.895 49.3368H41.1316C39.8291 49.3368 38.7732 50.3927 38.7732 51.6951C38.7732 52.9976 39.8291 54.0535 41.1316 54.0535H100.609C98.8684 56.7264 97.3043 59.4388 95.9349 62.1614H41.1316C39.8291 62.1614 38.7732 63.2173 38.7732 64.5197C38.7732 65.8222 39.8291 66.8781 41.1316 66.8781H93.7589C92.6196 69.5972 91.6854 72.3093 90.9643 74.986H41.1316C39.8291 74.986 38.7732 76.0419 38.7732 77.3443C38.7732 78.6468 39.8291 79.7027 41.1316 79.7027H89.9097C89.7131 80.8266 89.5628 81.9391 89.4506 83.0406L82.1666 90.3246C81.2456 91.2456 81.2456 92.739 82.1666 93.6597C83.0584 94.5512 84.5844 94.5773 85.502 93.6597L92.7828 86.3789C97.1556 85.9352 101.448 84.8607 105.582 83.384C109.837 81.864 113.934 79.9106 117.844 77.6497C121.613 75.4705 125.213 73.0011 128.628 70.3009C128.626 74.1608 128.604 78.0707 128.582 81.8901C128.486 98.8403 128.386 116.328 130.121 129.177C130.121 129.177 51.9953 129.177 51.9013 129.177C50.4067 129.177 49.2728 130.605 49.6051 132.06C49.6105 132.083 49.613 132.107 49.619 132.13C49.6196 132.133 49.6234 132.148 49.6287 132.169C49.7595 132.714 51.3544 139.72 48.4457 143.724C48.4373 143.736 48.4288 143.747 48.42 143.759C46.7452 146.034 43.784 146.716 41.102 146.701C35.3705 146.668 32.0229 137.172 30.8685 117.671C30.7915 116.371 29.6761 115.38 28.3749 115.456C27.0747 115.533 26.0829 116.649 26.1602 117.95C27.0825 133.532 29.6179 151.418 41.1316 151.418H144.054C148.928 151.418 152.608 149.852 154.99 146.762C159.615 140.766 157.209 131.334 157.104 130.936C156.832 129.899 155.895 129.176 154.823 129.176H134.884C133.103 116.623 133.202 98.9959 133.299 81.9165C133.328 76.7724 133.358 71.4669 133.337 66.3256C134.648 65.1483 135.937 63.9289 137.198 62.6679C141.133 58.7335 144.706 54.5111 147.818 50.1175C148.571 49.0547 148.32 47.5827 147.257 46.8296C146.194 46.0768 144.722 46.3281 143.969 47.3909C141.01 51.5678 137.61 55.5858 133.863 59.3325C130.909 62.2865 127.758 65.049 124.436 67.5822C116.32 73.7675 107.634 78.21 99.3784 80.3813C99.1127 80.4508 98.8458 80.5159 98.5791 80.5816L140.491 38.6709C141.412 37.7498 141.412 36.2565 140.491 35.3358C139.57 34.4148 138.076 34.4148 137.156 35.3358L95.2444 77.2469C95.3044 77.0032 95.362 76.7601 95.4261 76.5158C97.8332 67.303 102.456 58.8926 108.238 51.3974C108.241 51.3945 108.243 51.392 108.245 51.3892C108.263 51.3656 108.281 51.3423 108.299 51.319C113.691 44.2681 120.092 37.9822 127.245 32.7252C136.638 25.8368 146.714 21.2845 155.951 19.8754C154.991 26.151 152.558 32.9293 148.834 39.6626C148.203 40.8025 148.616 42.2374 149.756 42.8678ZM22.8682 27.105H4.94888V27.1053C4.83819 26.3428 4.73757 25.3843 4.71618 24.3353C4.67279 22.1895 4.95988 19.1934 6.57491 17.1079C8.02076 15.2407 10.3339 14.321 13.6438 14.2983L15.1877 14.4681C15.2101 14.4735 15.2321 14.4791 15.2541 14.4848C18.3728 15.2973 20.8079 19.0425 22.5157 25.6406C22.6415 26.1267 22.7575 26.6154 22.8682 27.105ZM152.868 133.894C153.226 136.393 153.487 140.989 151.256 143.881C149.792 145.779 147.436 146.701 144.054 146.701H52.1151C55.1483 142.713 55.108 137.235 54.7099 133.894H152.868Z" fill="#F86262"/>
</g>
<defs>
<clipPath id="clip0">
<rect width="161" height="161" fill="white"/>
</clipPath>
</defs>
</svg>
