<svg width="200" height="200" viewBox="0 0 200 200" fill="none" xmlns="http://www.w3.org/2000/svg">
<path d="M164.474 162.048C162.856 162.048 161.544 163.36 161.544 164.978V192.522C161.544 193.414 160.819 194.14 159.927 194.14H144.178V136.446C144.178 134.828 142.866 133.516 141.248 133.516C139.63 133.516 138.319 134.828 138.319 136.446V194.14H106.606L115.802 184.023C116.807 182.918 117.281 181.343 117.069 179.809C117.066 179.78 117.061 179.75 117.056 179.72L108.297 127.975L110.657 124.423C111.961 125.35 112.966 126.242 114.851 126.242C116.768 126.242 118.561 125.169 119.443 123.402V123.402L128.681 104.886L149.727 113.037C150.488 113.363 161.544 118.342 161.544 131.489V151.305C161.543 152.923 162.855 154.235 164.473 154.235C166.091 154.235 167.403 152.923 167.403 151.305V131.489C167.403 114.167 152.571 107.871 151.94 107.611C151.922 107.603 151.903 107.596 151.884 107.589L116.858 94.0238V85.809C122.421 81.4824 126.278 75.0687 127.247 67.7516C130.021 67.5563 132.594 66.5203 134.696 64.7129C137.441 62.3523 139.016 58.9168 139.016 55.2887C139.016 52.2777 137.93 49.4027 135.994 47.1625V36.3098C135.994 16.2887 119.705 0 99.6843 0C79.6632 0 63.375 16.2887 63.375 36.3098V47.4469C61.4183 49.6645 60.3543 52.3941 60.3543 55.2883C60.3543 58.9176 61.9285 62.3527 64.6742 64.7137C66.7746 66.5203 69.3468 67.5551 72.1199 67.7508C73.096 75.2051 77.066 81.8578 83.1031 86.2426V94.0238L48.1144 107.588C48.096 107.595 48.0777 107.603 48.0593 107.61C47.4277 107.87 32.5964 114.166 32.5964 131.488V192.521C32.5964 196.645 35.9507 199.999 40.0738 199.999H67.9867C69.6046 199.999 70.9164 198.687 70.9164 197.069C70.9164 195.451 69.6046 194.139 67.9867 194.139H61.6832V136.446C61.6832 134.828 60.3714 133.516 58.7535 133.516C57.1355 133.516 55.8238 134.828 55.8238 136.446V194.14H40.0742C39.1824 194.14 38.4566 193.414 38.4566 192.523V131.489C38.4566 118.298 49.5867 113.33 50.2703 113.038L71.2992 104.886L80.5382 123.402C81.4222 125.173 83.2171 126.242 85.1304 126.242C87.0058 126.242 88.0011 125.363 89.325 124.423L91.6847 127.975L82.9265 179.721C82.9214 179.75 82.9171 179.779 82.9128 179.809C82.7011 181.342 83.175 182.917 84.18 184.023L93.3765 194.141H81.6597C80.0418 194.141 78.73 195.452 78.73 197.07C78.73 198.688 80.0418 200 81.6597 200H159.927C164.05 200 167.405 196.645 167.405 192.523V164.978C167.404 163.36 166.092 162.048 164.474 162.048ZM123.193 102.761L114.58 120.023C114.366 119.871 109.802 116.628 104.222 112.666C106.643 109.677 103.811 113.173 114.861 99.5344L123.193 102.761ZM105.876 121.029L103.643 124.391H96.3367L94.1031 121.029L99.9898 116.848L105.876 121.029ZM88.9621 94.9691V89.4863C92.5214 90.9211 96.3253 91.5863 100.04 91.5863C103.881 91.5863 107.648 90.7676 110.998 89.3027V94.993L99.9898 108.581L88.9621 94.9691ZM133.157 55.2887C133.156 57.2078 132.325 59.0238 130.876 60.2703C129.918 61.0945 128.76 61.6215 127.493 61.8277V48.7508C130.86 49.2977 133.157 52.0906 133.157 55.2887ZM71.8777 61.8277C68.4722 61.275 66.2136 58.4594 66.2136 55.2883C66.2136 52.1562 68.8101 49.607 71.8777 48.898V61.8277ZM72.0351 42.9281C71.1019 43.0352 70.0324 43.2879 69.2351 43.559V36.3098C69.2351 19.5195 82.8945 5.85977 99.6847 5.85977C116.475 5.85977 130.134 19.5195 130.134 36.3098V43.3578C129.283 43.0988 128.4 42.9277 127.493 42.8473C127.493 40.0203 127.518 40.5656 118.269 30.623C116.569 28.7957 113.755 28.4129 111.614 29.8117C101.407 36.4793 88.9562 39.8289 77.4679 39.0039C74.948 38.8152 72.6527 40.475 72.0351 42.9281ZM77.7375 64.1344V45.8563V44.8934C90.3839 45.634 103.643 41.877 114.354 35.0172C118.596 39.5711 120.893 41.9598 121.633 42.8684C121.633 45.1668 121.633 61.5031 121.633 64.134C121.633 76.0273 111.936 85.7262 100.041 85.7262C86.6836 85.7266 77.7375 75.3648 77.7375 64.1344ZM85.3996 120.023L76.7867 102.761L85.1043 99.5398L95.7453 112.675C90.3339 116.517 85.8906 119.674 85.3996 120.023ZM88.7609 180.352L97.241 130.25H102.737L111.218 180.352L99.9894 192.705L88.7609 180.352Z" fill="#F86262"/>
</svg>
