<svg width="46" height="46" viewBox="0 0 46 46" fill="none" xmlns="http://www.w3.org/2000/svg">
<path fill-rule="evenodd" clip-rule="evenodd" d="M23 0C16.3542 0 10.3681 2.81969 6.16929 7.3267C7.8284 6.40796 9.78722 5.86053 11.87 5.86053H23.3896L20.8154 8.56215H17.7917C19.9253 9.78457 21.0598 12.3018 21.0598 15.0764C21.0598 17.6231 19.6486 19.6755 17.6556 21.2332C15.7114 22.7517 15.3425 23.388 15.3425 24.6803C15.3425 25.7028 17.3413 27.1896 18.4834 28.0393L18.4834 28.0393L18.4834 28.0393L18.4834 28.0393C18.5727 28.1057 18.6567 28.1682 18.7341 28.2262C22.4545 31.0165 23.2073 32.7715 23.2073 36.2616C23.2073 39.7979 20.1107 43.3189 14.858 44.5154C17.3892 45.474 20.1329 46 23 46C35.7024 46 46 35.7025 46 23C46 10.2975 35.7025 0 23 0ZM19.6311 36.7535C19.6311 40.1258 17.5472 42.7906 11.6459 43.0055C8.18763 41.0385 5.28989 38.2011 3.24964 34.7908C4.31388 32.1631 7.63813 30.1618 11.4397 30.2037C12.5188 30.2149 13.5245 30.3885 14.438 30.6843C14.802 30.9373 15.1557 31.1766 15.4962 31.4068L15.4963 31.4069C17.5048 32.7653 19.0488 33.8096 19.4837 35.511C19.5787 35.9138 19.6311 36.329 19.6311 36.7535ZM34.5 23.0001V17.25H40.2501V14.3751H34.5V8.62502H31.625V14.3751H25.875V17.25H31.625V23.0001H34.5ZM16.431 15.2497C16.9665 19.3276 15.1801 21.9517 12.0766 21.8593C8.9713 21.7658 6.02086 18.9173 5.48473 14.8406C4.94894 10.7622 7.03085 7.64168 10.1355 7.73414C13.2391 7.82729 15.8953 11.1726 16.431 15.2497ZM1.70896 31.7119C3.71764 30.0005 6.56777 28.8429 9.92255 28.8429C10.2915 28.8429 10.6447 28.8382 10.9931 28.8334C11.3338 28.8288 11.6701 28.8243 12.0122 28.8243C11.0967 27.9338 10.356 27.1655 10.356 25.8192C10.356 25.0201 10.6108 24.2581 10.968 23.5739C10.6037 23.6 10.2331 23.6199 9.85062 23.6199C4.65681 23.6199 1.51326 20.172 1.18197 15.7049C0.415811 17.9972 0 20.45 0 23.0001C0 26.0835 0.608322 29.0247 1.70896 31.7119Z" fill="#F86262"/>
</svg>
