<svg width="50" height="50" viewBox="0 0 50 50" fill="none" xmlns="http://www.w3.org/2000/svg">
<path d="M42.6779 7.32266C37.9561 2.60059 31.6778 0 25 0C18.3227 0 12.0447 2.60059 7.32266 7.32266C2.60059 12.0447 0 18.3227 0 25C0 31.6785 2.60059 37.9568 7.32266 42.6785C12.0444 47.3999 18.3224 50 25 50C31.6782 50 37.9563 47.3999 42.6778 42.6785C47.3996 37.9569 50 31.6786 50 25C50 18.3226 47.3996 12.0445 42.6779 7.32266ZM41.573 41.5736C37.1466 45.9999 31.2608 48.4375 25 48.4375C18.7396 48.4375 12.8541 45.9999 8.42744 41.5736C4.00049 37.1471 1.5625 31.261 1.5625 25C1.5625 18.74 4.00049 12.8545 8.42744 8.42744C12.8545 4.00049 18.74 1.5625 25 1.5625C31.2605 1.5625 37.1463 4.00049 41.573 8.42744C45.9997 12.8543 48.4375 18.7398 48.4375 25C48.4375 31.2612 45.9997 37.1472 41.573 41.5736Z" fill="#F86262"/>
<path d="M41.9959 11.2273C41.7241 10.8922 41.2321 10.841 40.897 11.1129C40.5619 11.3847 40.5107 11.8767 40.7825 12.2117C43.7037 15.8123 45.3125 20.354 45.3125 24.9999C45.3125 30.4263 43.1997 35.5275 39.3634 39.3637C35.5271 43.1998 30.4261 45.3124 25 45.3124C19.9942 45.3124 15.1851 43.4758 11.4587 40.1409C11.1372 39.8532 10.6433 39.8805 10.3556 40.202C10.0679 40.5235 10.0952 41.0175 10.4167 41.3052C14.43 44.8969 19.6091 46.8749 25 46.8749C30.8435 46.8749 36.3368 44.5998 40.4682 40.4685C44.5997 36.3373 46.875 30.8436 46.875 24.9999C46.875 19.9967 45.1422 15.1054 41.9959 11.2273Z" fill="#F86262"/>
<path d="M4.6875 25C4.6875 13.7997 13.7997 4.6875 25 4.6875C30.0059 4.6875 34.8148 6.52422 38.5412 9.85928C38.8628 10.1472 39.3567 10.1196 39.6443 9.79824C39.9321 9.47676 39.9048 8.98281 39.5833 8.69512C35.57 5.10312 30.3909 3.125 25 3.125C19.1573 3.125 13.6641 5.40049 9.53232 9.53232C5.40049 13.6642 3.125 19.1573 3.125 25C3.125 30.0038 4.85781 34.8953 8.0042 38.7732C8.15859 38.9636 8.38398 39.0623 8.61133 39.0623C8.78428 39.0623 8.9583 39.0052 9.10313 38.8877C9.43818 38.6158 9.48945 38.1238 9.21758 37.7888C6.29629 34.1883 4.6875 29.6465 4.6875 25Z" fill="#F86262"/>
<path d="M31.8052 36.4299H36.6467C37.0781 36.4299 37.4279 36.0801 37.4279 35.6486V27.2982C37.4279 24.9538 36.8221 23.1085 35.6272 21.8137C34.5102 20.6032 32.9348 19.9634 31.0713 19.9634C29.4507 19.9634 28.3124 20.4571 27.4895 21.0997V21.0862C27.4895 20.6548 27.1397 20.305 26.7083 20.305H21.8682C21.6548 20.305 21.4508 20.3923 21.3033 20.5465C21.1559 20.7008 21.078 20.9086 21.0877 21.1218C21.1482 22.4517 21.0875 35.5132 21.0869 35.645C21.0859 35.8528 21.1679 36.0525 21.3144 36.1998C21.461 36.3471 21.6603 36.4299 21.8682 36.4299H26.7082C27.1396 36.4299 27.4894 36.0801 27.4894 35.6486V27.5156C27.4894 27.0922 27.5233 26.7953 27.5923 26.6277C27.7479 26.2417 28.2309 25.3439 29.352 25.3439C29.8094 25.3439 31.024 25.3439 31.024 27.857V35.6485C31.0239 36.0801 31.3736 36.4299 31.8052 36.4299ZM29.3519 23.7814C27.9138 23.7814 26.7143 24.627 26.1454 26.0379C25.9943 26.4045 25.9269 26.8602 25.9269 27.5155V34.8673H22.6529C22.6638 32.3424 22.6937 24.5685 22.6649 21.8674H25.9269V23.1483C25.9269 23.4944 26.1547 23.7993 26.4866 23.8975C26.8184 23.9956 27.1755 23.8636 27.3638 23.5732C28.0201 22.5608 28.9738 21.5258 31.0712 21.5258C34.118 21.5258 35.8654 23.6297 35.8654 27.298V34.8672H32.5864V27.8569C32.5864 26.6718 32.3493 25.7227 31.8817 25.0359C31.3228 24.2152 30.448 23.7814 29.3519 23.7814Z" fill="#F86262"/>
<path d="M20.2878 16.563C20.2478 14.6308 18.8133 13.2812 16.7995 13.2812C14.7608 13.2812 13.2812 14.6683 13.2812 16.5792C13.2812 18.4901 14.7341 19.8771 16.7358 19.8771H16.7684C18.8077 19.8771 20.288 18.4901 20.288 16.5792C20.288 16.5738 20.2879 16.5685 20.2878 16.563ZM16.7684 18.3146H16.7358C15.6041 18.3146 14.8437 17.6172 14.8437 16.5792C14.8437 15.5412 15.6297 14.8438 16.7994 14.8438C17.9621 14.8438 18.6994 15.5115 18.7254 16.5872C18.7214 17.6208 17.9359 18.3146 16.7684 18.3146Z" fill="#F86262"/>
<path d="M14.3476 20.3049C13.9161 20.3049 13.5663 20.6547 13.5663 21.0862V35.6486C13.5663 36.08 13.9161 36.4298 14.3476 36.4298H19.1904C19.6219 36.4298 19.9717 36.08 19.9717 35.6486V21.0862C19.9717 20.6547 19.6219 20.3049 19.1904 20.3049H14.3476ZM18.4093 34.8674H15.1289V21.8674H18.4093V34.8674Z" fill="#F86262"/>
</svg>
