<svg width="46" height="46" viewBox="0 0 46 46" fill="none" xmlns="http://www.w3.org/2000/svg">
<path d="M22.9999 0C35.7032 0 46 10.2982 46 23.0001C46 35.7019 35.7032 46 22.9999 46C10.2967 46 0 35.7018 0 23.0001C0 10.2984 10.2968 0 22.9999 0Z" fill="#F86262"/>
<path fill-rule="evenodd" clip-rule="evenodd" d="M17.398 14.1452C17.398 15.3294 16.4129 16.2906 15.199 16.2906C13.9852 16.2906 13 15.3296 13 14.1454C13 12.9611 13.9852 12 15.199 12C16.4129 12 17.398 12.961 17.398 14.1452ZM30.1343 17.2231C28.0028 17.2231 26.0956 17.9825 24.7426 19.6588V17.6709H20.3344V32H24.7426V24.2512C24.7426 22.6136 26.2804 21.016 28.2067 21.016C30.1329 21.016 30.6079 22.6136 30.6079 24.2111V31.9986H35V23.8922C34.9998 18.2614 32.2673 17.2231 30.1343 17.2231ZM13.0235 31.9998H17.4156V17.7178H13.0235V31.9998Z" fill="white"/>
</svg>
