<?xml version="1.0" encoding="UTF-8"?>
<svg width="17px" height="15px" viewBox="0 0 17 15" version="1.1" xmlns="http://www.w3.org/2000/svg" xmlns:xlink="http://www.w3.org/1999/xlink">
    <!-- Generator: Sketch 53.1 (72631) - https://sketchapp.com -->
    <title>Path</title>
    <desc>Created with Sketch.</desc>
    <g id="Page-1" stroke="none" stroke-width="1" fill="none" fill-rule="evenodd">
        <g id="Accueil-v2" transform="translate(-797.000000, -665.000000)" fill="#FFFFFF" fill-rule="nonzero">
            <g id="arrow-forward-outline" transform="translate(794.000000, 661.000000)">
                <path d="M4.0625,12.5706489 L16.66375,12.5706489 L12.806875,17.2416514 C12.4313214,17.6972448 12.493162,18.3735529 12.945,18.7522279 C13.396838,19.1309029 14.0675714,19.0685483 14.443125,18.6129549 L19.755625,12.1849698 C19.7913668,12.1338412 19.8233281,12.0801296 19.85125,12.0242702 C19.85125,11.9707036 19.904375,11.9385637 19.925625,11.8849971 C19.9737844,11.7621598 19.9990001,11.6314015 20,11.499318 C19.9990001,11.3672345 19.9737844,11.2364763 19.925625,11.1136389 C19.925625,11.0600724 19.8725,11.0279325 19.85125,10.9743659 C19.8233281,10.9185065 19.7913668,10.8647948 19.755625,10.8136663 L14.443125,4.38568115 C14.2408712,4.1408391 13.9410218,3.99948456 13.625,4.00000205 C13.3767446,3.99951297 13.1361566,4.0866929 12.945,4.24640814 C12.7277112,4.42805032 12.5910304,4.68940429 12.565117,4.97280101 C12.5392036,5.25619773 12.6261874,5.53834464 12.806875,5.75698465 L16.66375,10.4279872 L4.0625,10.4279872 C3.47569745,10.4279872 3,10.9076383 3,11.499318 C3,12.0909977 3.47569745,12.5706489 4.0625,12.5706489 Z" id="Path"></path>
            </g>
        </g>
    </g>
</svg>